<svg aria-hidden="true" focusable="false" data-prefix="far" data-icon="arrow-down-arrow-up"
  class="svg-inline--fa fa-arrow-down-arrow-up absolute left-1/2 top-1/2 h-[1em] -translate-x-1/2 -translate-y-1/2 align-[-0.125em]"
  role="img" xmlns="http://www.w3.org/2000/svg" viewBox="0 0 576 512">
  <path fill="#a9a9a9" d="M47 377l96 96c9.4 9.4 24.6 9.4 33.9 0l96-96c9.4-9.4 9.4-24.6 0-33.9s-24.6-9.4-33.9 0l-55 55V56c0-13.3-10.7-24-24-24s-24 10.7-24 24V398.1L81 343c-9.4-9.4-24.6-9.4-33.9 0s-9.4 24.6 0 33.9zM399 39l-96 96c-9.4 9.4-9.4 24.6 0 33.9s24.6 9.4 33.9 0l55-55V456c0 13.3 10.7 24 24 24s24-10.7 24-24V113.9l55 55c9.4 9.4 24.6 9.4 33.9 0s9.4-24.6 0-33.9L433 39c-9.4-9.4-24.6-9.4-33.9 0z"/>
</svg>
